<?xml version="1.0" standalone="no"?><!DOCTYPE svg PUBLIC "-//W3C//DTD SVG 1.1//EN" "http://www.w3.org/Graphics/SVG/1.1/DTD/svg11.dtd"><svg t="1763437361153" class="icon" viewBox="0 0 1131 1024" version="1.1" xmlns="http://www.w3.org/2000/svg" p-id="1583" xmlns:xlink="http://www.w3.org/1999/xlink" width="220.8984375" height="200"><path d="M768.389015 224.181077c-4.591607-34.514856-15.521064-67.96023-58.26574-79.16385-17.966299-4.687934-37.873966-3.129406-60.051502-4.638536-23.575519-37.540525-65.514996-38.671754-110.388754-31.75841-31.163156-47.711712-100.402811-56.996194-145.350668-19.154337-24.827775-27.890493-57.448192-26.865471-90.73796-17.89467-35.895549 9.645092-56.598534 31.941185-58.789366 66.643755-4.003763 1.195448-7.333234 2.707048-10.796081 3.139286C197.594709 145.614951 177.684572 165.208936 169.499211 196.764811c-9.32153 36.103023-18.109555 72.364122-30.160362 107.679237-11.917431 35.12246-2.929342 62.225044 21.100645 87.946935a177.980964 177.980964 0 0 0 9.449967 9.400568c1.000323 0.896586 2.005586 1.812931 2.931811 2.778676 45.009605 41.761642 87.492467 85.849961 129.634479 129.997559a139.138784 139.138784 0 0 1 15.780407 19.77429c4.660765 7.177628 8.454584 14.646708 11.314768 22.291153 8.464463 21.750238 9.990882 41.922187 5.791994 66.606707-11.504952 67.844143-23.096352 139.729098-34.885345 201.477445h19.176566c13.920547-61.748347 27.63115-149.035809 41.410911-225.070254 21.905843 1.207798 42.144481 4.040812 64.588771 5.24861 1.731424 71.32428-9.447497 142.480605-18.116965 213.076254 23.242078-76.847052 36.829184-154.649969 42.55202-236.580145-17.580989 0.953394-33.027956 2.504513-48.52926 2.865124-28.505507 0.721221-48.93927-3.872856-54.938739-31.464488a74.441337 74.441337 0 0 1-1.657326-11.887792c73.702826-6.441588 120.63651-22.014521 140.015611-43.416497 2.193301-2.348907 4.063041-4.779322 5.520302-7.325824-18.974032 5.96736-40.477276 13.023961-62.783249 20.003995-7.787701 2.420535-15.647031 4.8386-23.50389 7.251725-10.850419 3.314651-21.036427 4.813901-30.763026 4.757093-26.625887-0.175365-49.134394-12.236052-69.375503-32.731564-42.670577-43.243602-86.351358-85.773393-129.96545-128.325413-19.307473-18.719629-26.089911-39.94377-18.974032-64.828354 11.262898-39.56834 21.836685-79.270057 33.754117-118.680322C197.594709 168.866908 214.242063 157.96709 247.729426 155.674991c51.265947-3.549295 102.467676-7.227026 153.669406-10.959096 18.037927-1.326354 24.296739 2.837954 25.230374 19.519887 1.267076 23.195149-5.861153 44.518088-28.562315 56.941855-46.6694 25.348931-94.677505 48.487272-152.933365 29.639207 11.255489 6.495926 22.903697 13.135108 35.549758 15.28889 17.380925 2.9738 22.372661 11.630919 19.443319 25.381041-2.390896 11.435794-6.782438 22.523327-10.316913 33.793635 1.13123 0.479167 2.331618 0.965744 3.465317 1.442441 6.453937-12.772028 12.848596-25.603334 19.566816-38.990376 28.76485-2.946631 57.996517-3.781469 86.222921 7.85933 12.984442 5.349877 27.164333 8.424944 40.551374 13.0536 19.566816 6.747859 39.145982 13.680964 58.396647 21.150044 20.095382 7.780292 32.148659 22.950625 33.94924 41.564047 2.408186 25.077238 0.605134 50.554606 0.605134 74.843936 18.507214-30.25669 24.299209-63.267356 10.84795-98.271259 29.298355-3.433208 42.011105 2.047575 52.399647 29.757763 8.5929 22.903697 11.58893 47.482009 16.244755 67.715707 8.20018-30.891463 1.86974-64.635699-13.243786-98.439214 14.972739-1.385633 29.024193-5.060894 42.406295-3.549295 42.280328 4.641006 71.907185-8.20265 86.825585-45.54311 1.531359-4.035872 4.46317-8.093973 7.918608-10.84301 5.463494-4.349554 11.924841-7.597517 21.436556-13.505598 0 10.425591 0.671822 16.331203-0.056809 22.113318-6.592253 48.18594-11.853213 96.567004-20.774613 144.412093-5.268369 28.246164-14.654118 56.205815-25.435379 83.26641-11.257959 28.139956-35.021192 43.796867-69.306344 44.041391-15.254312 0.128437-30.424645 0-45.612269 0 15.847096 4.991736 31.958474 9.563584 48.408234 11.20362 16.509038 1.620277 33.353987 0.350731 51.13504 0.35073-10.650355 35.374393-18.512154 71.099516-24.568432 107.123502-2.129083 12.297801-4.063041 22.669053-5.730246 35.013782-5.866093 41.573927-9.919254 84.148177-13.779761 123.667119h17.714365c2.791025-29.639206 6.051338-44.4514 8.116203-67.21431 1.059602-11.349346 2.262459-21.6712 3.672792-32.946448a962.187435 962.187435 0 0 1 5.253549-37.090997 1045.001848 1045.001848 0 0 1 44.337783-178.190909c34.282682-99.540805 51.591979-200.805623 37.612153-305.09364zM260.575552 137.607425c6.73057-13.06595 9.595693-24.63759 17.247549-32.225227 20.312736-20.250988 47.533877-25.427969 76.296257-20.680756 21.448906 3.628333 30.567901 17.17839 31.965884 43.389328-40.674871 3.119526-80.228392 6.085917-125.50969 9.516655z m227.967486 128.266136c-6.649062 23.128461-24.091735 29.453961-54.793013 24.336258-25.497127-4.270516-37.278712-16.681933-35.09282-39.635029 0.610074-5.848803 5.796935-12.70534 11.124582-16.573256 23.172919-16.81037 35.690544-37.839387 35.48801-64.944441-0.269223-27.359457-8.654648-36.866233-38.948387-43.436257-0.664412-28.431409 13.312944-42.416174 42.616239-42.17412 11.910021 0.061748 24.491864 0.659472 35.552228 4.156898 33.959121 10.899818 42.277858 23.568109 36.619239 49.591332-9.324 43.176914-20.236168 86.087075-32.566078 128.678615z m75.244065 55.674779c-39.22255 3.549295-64.314608-23.382864-55.198082-57.722355 11.178921-42.228459 20.705456-84.817529 31.553405-127.125025 4.594077-17.892201 21.905843-13.132638 41.220727-15.607513 8.721336 2.847834 23.037073 5.60428 35.216317 11.826044 17.845272 9.086887 19.77429 23.733594 14.710926 41.43808a1009.973246 1009.973246 0 0 0-22.234345 95.62102c-5.715427 31.504006-19.769351 49.28506-45.268948 51.569749zM737.028264 208.511817c-12.253342 31.158216-21.103115 63.388383-33.625679 94.410752-8.788025 21.752708-25.697192 29.639206-47.872258 26.744443-21.367398-2.768796-32.748853-15.004848-34.218464-34.934744 8.182891-36.747676 15.118465-73.789274 25.089588-110.129411 6.871356-24.832715 26.173889-32.837771 52.738028-25.544056 24.234991 6.572494 48.469982 22.646824 37.888785 49.453016z" fill="#d81e06" p-id="1584"></path><path d="M682.474835 965.74414H276.780789c-35.912838 0-70.800654-32.571018-70.800655-68.301081v-3.013319C205.980134 858.721906 240.86795 837.307579 276.780789 837.307579h405.694046c35.241016 0 64.420815 20.201589 64.420815 57.122161v3.013319c0 36.937861-29.179799 68.301081-64.420815 68.301081zM276.780789 844.717381c-21.231551 0-36.22158 27.300179-36.221581 49.712359v3.013319c0 22.426999 14.990029 38.661875 36.221581 38.661875h405.694046c20.050923 0 29.841741-15.466726 29.841741-38.661875v-3.013319c0-23.17045-9.788348-49.712359-29.841741-49.712359H276.780789z" fill="#d81e06" p-id="1585"></path></svg>